<?xml version="1.0" encoding="UTF-8" standalone="no"?>
<!-- Created with Inkscape (http://www.inkscape.org/) -->

<svg
   width="3"
   height="13"
   viewBox="0 0 3 13.000001"
   version="1.1"
   id="svg5"
   xml:space="preserve"
   xmlns="http://www.w3.org/2000/svg"
   xmlns:svg="http://www.w3.org/2000/svg"><defs
     id="defs2" /><g
     id="layer1"
     transform="translate(-286.5,55)"><g
       id="g18407"
       transform="translate(256,-56)"
       style="fill:#000000;fill-opacity:1"><path
         id="path16549-6"
         style="fill-rule:evenodd;stroke-width:3;stroke-linecap:round;stroke-linejoin:round;stroke-miterlimit:128.3;stroke-dashoffset:3"
         d="M 32,1 A 1.5,1.5 0 0 0 30.5,2.5 1.5,1.5 0 0 0 32,4 1.5,1.5 0 0 0 33.5,2.5 1.5,1.5 0 0 0 32,1 Z m 0,5 A 1.5,1.5 0 0 0 30.5,7.5 1.5,1.5 0 0 0 32,9 1.5,1.5 0 0 0 33.5,7.5 1.5,1.5 0 0 0 32,6 Z m 0,5 A 1.5,1.5 0 0 0 30.5,12.5 1.5,1.5 0 0 0 32,14 1.5,1.5 0 0 0 33.5,12.5 1.5,1.5 0 0 0 32,11 Z" /></g></g></svg>
