<?xml version="1.0" encoding="UTF-8" standalone="no"?>
<!-- Created with Inkscape (http://www.inkscape.org/) -->

<svg
   width="13"
   height="13"
   viewBox="0 0 13 13.000001"
   version="1.1"
   id="svg5"
   xml:space="preserve"
   xmlns="http://www.w3.org/2000/svg"
   xmlns:svg="http://www.w3.org/2000/svg"><defs
     id="defs2" /><g
     id="layer1"
     transform="translate(-489.5,-48.999997)"><path
       id="path6"
       style="opacity:1;stroke-linecap:square;stroke-miterlimit:58;stroke-dashoffset:3;paint-order:markers fill stroke"
       d="m 496,48.999997 a 6.5000005,6.5000005 0 0 0 -6.5,6.5 6.5000005,6.5000005 0 0 0 6.5,6.5 6.5000005,6.5000005 0 0 0 6.5,-6.5 6.5000005,6.5000005 0 0 0 -6.5,-6.5 z m 0,4 a 2.5000005,2.5000005 0 0 1 2.5,2.5 2.5000005,2.5000005 0 0 1 -2.5,2.5 2.5000005,2.5000005 0 0 1 -2.5,-2.5 2.5000005,2.5000005 0 0 1 2.5,-2.5 z m 0,1.25 a 1.2499999,1.2499999 0 0 0 -1.25,1.25 1.2499999,1.2499999 0 0 0 1.25,1.25 1.2499999,1.2499999 0 0 0 1.25,-1.25 1.2499999,1.2499999 0 0 0 -1.25,-1.25 z" /></g></svg>
