<?xml version="1.0" encoding="UTF-8" standalone="no"?>
<!-- Created with Inkscape (http://www.inkscape.org/) -->

<svg
   width="13"
   height="13"
   viewBox="0 0 13 13.000001"
   version="1.1"
   id="svg5"
   xml:space="preserve"
   xmlns="http://www.w3.org/2000/svg"
   xmlns:svg="http://www.w3.org/2000/svg"><defs
     id="defs2" /><g
     id="layer1"
     transform="translate(-489.49997,-24.999998)"><g
       id="g5"
       transform="translate(2.917939,-0.49982756)"><path
         id="path1"
         style="color:#000000;fill:#000000;stroke-linecap:square;stroke-miterlimit:58;stroke-dashoffset:3;-inkscape-stroke:none;paint-order:fill markers stroke"
         d="m 493.08203,25.499826 c -3.578,0 -6.5,2.922001 -6.5,6.5 0,3.577999 2.922,6.5 6.5,6.5 3.578,0 6.5,-2.922001 6.5,-6.5 0,-3.577999 -2.922,-6.5 -6.5,-6.5 z m 0,2 c 2.49712,0 4.5,2.002879 4.5,4.5 0,2.497121 -2.00288,4.5 -4.5,4.5 -2.49712,0 -4.5,-2.002879 -4.5,-4.5 0,-2.497121 2.00288,-4.5 4.5,-4.5 z m 0,2.5 c -1.09864,0 -2,0.901355 -2,2 0,1.098645 0.90136,2 2,2 1.09865,0 2,-0.901355 2,-2 0,-1.098645 -0.90135,-2 -2,-2 z m 0,1 c 0.55821,0 1,0.441794 1,1 0,0.558206 -0.44179,1 -1,1 -0.55821,0 -1,-0.441794 -1,-1 0,-0.558206 0.44179,-1 1,-1 z" /></g></g></svg>
