<?xml version="1.0" encoding="UTF-8" standalone="no"?>
<!-- Created with Inkscape (http://www.inkscape.org/) -->

<svg
   width="28"
   height="13"
   viewBox="0 0 28 13.000001"
   version="1.1"
   id="svg5"
   xml:space="preserve"
   xmlns="http://www.w3.org/2000/svg"
   xmlns:svg="http://www.w3.org/2000/svg"><defs
     id="defs2" /><g
     id="layer1"
     transform="translate(25,231)"><path
       id="rect19277-36-6-0-8-5-5-7-5-37-6"
       clip-path="none"
       style="fill:#000000;fill-rule:evenodd;stroke-width:1.65832;stroke-linecap:round;stroke-linejoin:round;paint-order:markers fill stroke"
       d="m 34.428567,0.99998 c 1.151698,0 2.095237,1.8013022 2.095237,4 v 5 c 0,2.198698 -0.943539,4 -2.095237,4 H 25 c -1.151693,0 -2.095237,-1.801302 -2.095237,-4 h -0.523809 c -0.290185,0 -0.52381,-0.4460006 -0.52381,-1 v -3 c 0,-0.5539994 0.233625,-1 0.52381,-1 h 0.523809 c 0,-2.1986978 0.943544,-4 2.095237,-4 z m 0,2 H 25 c -0.589437,0 -1.047619,0.8747111 -1.047619,2 v 5 c 0,1.125289 0.458182,2 1.047619,2 h 9.428567 c 0.589442,0 1.047618,-0.874711 1.047618,-2 v -5 c 0,-1.1252889 -0.458176,-2 -1.047618,-2 z m 0,1 c 0.290189,0 0.523809,0.4460006 0.523809,1 v 5 c 0,0.554 -0.23362,1 -0.523809,1 H 25 v -7 z"
       transform="matrix(-1.9090918,0,0,1,44.727295,-231.99998)" /></g></svg>
