<?xml version="1.0" encoding="UTF-8" standalone="no"?>
<!-- Created with Inkscape (http://www.inkscape.org/) -->

<svg
   width="28"
   height="13"
   viewBox="0 0 28 13.000001"
   version="1.1"
   id="svg5"
   xml:space="preserve"
   xmlns="http://www.w3.org/2000/svg"
   xmlns:svg="http://www.w3.org/2000/svg"><defs
     id="defs2" /><g
     id="layer1"
     transform="translate(25,-9)"><g
       id="g43"><path
         id="path6938-9-49-9-5-7-8-19-5-4"
         style="color:#000000;fill:#000000;fill-opacity:1;fill-rule:evenodd;stroke-linecap:round;stroke-linejoin:round;-inkscape-stroke:none;paint-order:markers fill stroke"
         d="m -21,9 c -2.198693,0 -4,1.801308 -4,4 v 5 c 0,2.198693 1.801307,4 4,4 h 18 c 2.198692,0 4,-1.801307 4,-4 h 1 c 0.553996,0 1,-0.446002 1,-1 V 14 C 3,13.446002 2.553996,13 2,13 H 1 C 1,10.801308 -0.801308,9 -3,9 Z m 0,2 h 18 c 1.125292,0 2,0.874708 2,2 v 5 c 0,1.125292 -0.874708,2 -2,2 h -18 c -1.125292,0 -2,-0.874708 -2,-2 v -5 c 0,-1.125292 0.874708,-2 2,-2 z" /><path
         d="m -21,11.999999 c -0.553997,0 -1,0.446001 -1,1 v 5 c 0,0.554 0.446003,1 1,1 h 3 v -7 z"
         style="color:#000000;fill:#ff6600;fill-opacity:1;fill-rule:evenodd;stroke-linecap:round;stroke-linejoin:round;-inkscape-stroke:none;paint-order:markers fill stroke"
         id="path1-6" /></g></g></svg>
