<?xml version="1.0" encoding="UTF-8" standalone="no"?>
<!-- Created with Inkscape (http://www.inkscape.org/) -->

<svg
   width="28"
   height="13"
   viewBox="0 0 28 13.000001"
   version="1.1"
   id="svg5"
   xml:space="preserve"
   xmlns="http://www.w3.org/2000/svg"
   xmlns:svg="http://www.w3.org/2000/svg"><defs
     id="defs2" /><g
     id="layer1"
     transform="translate(25,103)"><path
       id="path6938-9-49-9-5-7-9-9-6-78"
       style="color:#000000;fill:#000000;fill-opacity:1;fill-rule:evenodd;stroke-linecap:round;stroke-linejoin:round;-inkscape-stroke:none;paint-order:markers fill stroke"
       d="m -21,-103 c -2.198698,0 -4,1.80132 -4,4 v 5 c 0,2.198698 1.801302,4 4,4 h 18 c 2.1986878,0 4,-1.801302 4,-4 h 1 c 0.5539894,0 1,-0.446001 1,-1 v -3 c 0,-0.553999 -0.4460106,-1 -1,-1 H 1 c 0,-2.19868 -1.8013122,-4 -4,-4 z m 0,2 h 18 c 1.1252889,0 2,0.87471 2,2 v 5 c 0,1.125299 -0.8747111,2 -2,2 h -18 c -1.125299,0 -2,-0.874701 -2,-2 v -5 c 0,-1.12529 0.874701,-2 2,-2 z m 0,1 c -0.553998,0 -1,0.446001 -1,1 v 5 c 0,0.553999 0.446002,1 1,1 h 10 v -7 z" /></g></svg>
