<?xml version="1.0" encoding="UTF-8" standalone="no"?>
<!-- Created with Inkscape (http://www.inkscape.org/) -->

<svg
   width="28"
   height="13"
   viewBox="0 0 28 13.000001"
   version="1.1"
   id="svg5"
   xml:space="preserve"
   xmlns="http://www.w3.org/2000/svg"
   xmlns:svg="http://www.w3.org/2000/svg"><defs
     id="defs2" /><g
     id="layer1"
     transform="translate(25,199)"><path
       id="rect3"
       style="fill:#000000;fill-rule:evenodd;stroke-width:2;stroke-linecap:round;stroke-linejoin:round;paint-order:markers fill stroke"
       d="m 21,-199 c 2.198698,0 4,1.80131 4,4 v 5 c 0,2.1987 -1.801302,4 -4,4 H 3 c -2.1986878,0 -4,-1.8013 -4,-4 h -1 c -0.5539894,0 -1,-0.446 -1,-1 v -3 c 0,-0.554 0.4460106,-1 1,-1 h 1 c 0,-2.19869 1.8013122,-4 4,-4 z m 0,2 H 3 c -1.1252889,0 -2,0.87471 -2,2 v 5 c 0,1.1253 0.8747111,2 2,2 h 18 c 1.125299,0 2,-0.8747 2,-2 v -5 c 0,-1.12529 -0.874701,-2 -2,-2 z m 0,1 c 0.553999,0 1,0.446 1,1 v 5 c 0,0.554 -0.446001,1 -1,1 H 5 v -7 z"
       transform="scale(-1,1)" /></g></svg>
