<?xml version="1.0" encoding="UTF-8" standalone="no"?>
<!-- Created with Inkscape (http://www.inkscape.org/) -->

<svg
   width="28"
   height="13"
   viewBox="0 0 28 13.000001"
   version="1.1"
   id="svg5"
   xml:space="preserve"
   xmlns="http://www.w3.org/2000/svg"
   xmlns:svg="http://www.w3.org/2000/svg"><defs
     id="defs2" /><g
     id="layer1"
     transform="translate(25,7)"><g
       id="g44"><path
         id="path6938-9-49-9-5-7-8-19-5"
         style="color:#000000;fill:#000000;fill-opacity:1;fill-rule:evenodd;stroke-linecap:round;stroke-linejoin:round;-inkscape-stroke:none;paint-order:markers fill stroke"
         d="m -21,-7 c -2.198695,0 -4,1.801306 -4,4 v 5.0000004 c 0,2.198694 1.801305,4 4,4 h 18 c 2.198694,0 4,-1.801306 4,-4 H 2 C 2.553997,2.0000004 3,1.5539984 3,1 V -2 C 3,-2.5539982 2.553997,-3 2,-3 H 1 c 0,-2.198694 -1.801306,-4 -4,-4 z m 0,2 h 18 c 1.125293,0 2,0.8747072 2,2 v 5.0000004 c 0,1.125292 -0.874707,2 -2,2 h -18 c -1.125293,0 -2,-0.874708 -2,-2 V -3 c 0,-1.1252928 0.874707,-2 2,-2 z" /><path
         d="m -21,-4.0000003 c -0.553998,0 -1,0.4460006 -1,1 v 5.0000007 c 0,0.5539991 0.446002,1.0000001 1,1.0000001 h 4 v -7.0000008 z"
         style="color:#000000;fill:#ff6600;fill-opacity:1;fill-rule:evenodd;stroke-linecap:round;stroke-linejoin:round;-inkscape-stroke:none;paint-order:markers fill stroke"
         id="path1-1" /></g></g></svg>
