<?xml version="1.0" encoding="UTF-8" standalone="no"?>
<!-- Created with Inkscape (http://www.inkscape.org/) -->

<svg
   width="28"
   height="13"
   viewBox="0 0 28 13.000001"
   version="1.1"
   id="svg5"
   xml:space="preserve"
   xmlns="http://www.w3.org/2000/svg"
   xmlns:svg="http://www.w3.org/2000/svg"><defs
     id="defs2" /><g
     id="layer1"
     transform="translate(25.00001,-89)"><path
       id="path6938-9-49-9-5-7-9-2-3-43"
       style="color:#000000;fill:#ff0000;fill-opacity:1;fill-rule:evenodd;stroke-linecap:round;stroke-linejoin:round;-inkscape-stroke:none;paint-order:markers fill stroke"
       d="m -21.00001,89 c -2.1987,0 -4,1.8013 -4,4 v 5 c 0,2.19869 1.8013,4 4,4 h 18 c 2.19868996,0 4,-1.80131 4,-4 h 1 c 0.55399,0 1,-0.44601 1,-1 v -3 c 0,-0.554 -0.44601,-1 -1,-1 h -1 c 0,-2.1987 -1.80131004,-4 -4,-4 z m 0,2 h 18 c 1.12529,0 2,0.87471 2,2 v 5 c 0,1.12529 -0.87471,2 -2,2 h -18 c -1.1253,0 -2,-0.87471 -2,-2 v -5 c 0,-1.12529 0.8747,-2 2,-2 z" /></g></svg>
