<?xml version="1.0" encoding="UTF-8" standalone="no"?>
<!-- Created with Inkscape (http://www.inkscape.org/) -->

<svg
   width="27.999998"
   height="13"
   viewBox="0 0 27.999998 13.000001"
   version="1.1"
   id="svg5"
   xml:space="preserve"
   xmlns="http://www.w3.org/2000/svg"
   xmlns:svg="http://www.w3.org/2000/svg"><defs
     id="defs2" /><g
     id="layer1"
     transform="translate(25,215)"><path
       id="rect19277-36-6-0-8-5-5-7-69-5"
       clip-path="none"
       style="fill:#000000;fill-rule:evenodd;stroke-width:1.48361;stroke-linecap:round;stroke-linejoin:round;paint-order:markers fill stroke"
       d="m 34.349174,0.99999 c 1.209887,0 2.2011,1.801306 2.2011,4 v 5 c 0,2.198695 -0.991213,4 -2.2011,4 h -9.904946 c -1.209886,0 -2.2011,-1.801305 -2.2011,-4 h -0.550275 c -0.30485,0 -0.550274,-0.4460016 -0.550274,-1 v -3 c 0,-0.5539982 0.245424,-1 0.550274,-1 h 0.550275 c 0,-2.198694 0.991214,-4 2.2011,-4 z m 0,2 h -9.904946 c -0.619221,0 -1.10055,0.8747072 -1.10055,2 v 5 c 0,1.125293 0.481329,2 1.10055,2 h 9.904946 c 0.619221,0 1.10055,-0.874707 1.10055,-2 v -5 c 0,-1.1252928 -0.481329,-2 -1.10055,-2 z m 0,1 c 0.304852,0 0.550275,0.4460006 0.550275,1 v 5 c 0,0.553999 -0.245423,1 -0.550275,1 h -9.354672 v -7 z"
       transform="matrix(-1.8172737,0,0,1,41.421852,-215.99999)" /></g></svg>
