<?xml version="1.0" encoding="UTF-8" standalone="no"?>
<!-- Created with Inkscape (http://www.inkscape.org/) -->

<svg
   width="28"
   height="13"
   viewBox="0 0 28 13.000001"
   version="1.1"
   id="svg5"
   xml:space="preserve"
   xmlns="http://www.w3.org/2000/svg"
   xmlns:svg="http://www.w3.org/2000/svg"><defs
     id="defs2" /><g
     id="layer1"
     transform="translate(25,-57)"><g
       id="g42"
       style="fill:#ff0000;fill-opacity:1"><g
         id="rect19275-9-2-2-7-8-1-8-3-5-1"
         transform="matrix(-1,0,0,1,51.16015,55.999995)"
         style="fill:#ff0000;fill-opacity:1"><path
           id="path6938-9-49-9-5-7-2-9"
           style="color:#000000;fill:#ff0000;fill-opacity:1;fill-rule:evenodd;stroke-linecap:round;stroke-linejoin:round;-inkscape-stroke:none;paint-order:markers fill stroke"
           d="m 72.16015,1.000005 c 2.198695,0 4,1.801306 4,4 v 5 c 0,2.198695 -1.801305,4 -4,4 h -18 c -2.198694,0 -4,-1.801305 -4,-4 h -1 c -0.553997,0 -1,-0.4460016 -1,-1 v -3 c 0,-0.5539982 0.446003,-1 1,-1 h 1 c 0,-2.198694 1.801306,-4 4,-4 z m 0,2 h -18 c -1.125293,0 -2,0.8747072 -2,2 v 5 c 0,1.125293 0.874707,2 2,2 h 18 c 1.125293,0 2,-0.874707 2,-2 v -5 c 0,-1.1252928 -0.874707,-2 -2,-2 z m 0,1 c 0.553996,0 1,0.4460016 1,1 v 5 c 0,0.553999 -0.446004,1 -1,1 h -1 v -7 z" /></g></g></g></svg>
