<?xml version="1.0" encoding="UTF-8" standalone="no"?>
<!-- Created with Inkscape (http://www.inkscape.org/) -->

<svg
   width="14"
   height="10"
   viewBox="0 0 14 10.000001"
   version="1.1"
   id="svg5"
   xml:space="preserve"
   xmlns="http://www.w3.org/2000/svg"
   xmlns:svg="http://www.w3.org/2000/svg"><defs
     id="defs2" /><g
     id="layer1"
     transform="translate(-89,-154.99999)"><path
       id="rect2-9-3-0-7"
       style="fill:#000000;stroke:none;stroke-width:2;stroke-miterlimit:58;stroke-dashoffset:3;paint-order:markers fill stroke"
       d="m 91.5,154.99999 c -1.385,0 -2.5,1.115 -2.5,2.5 v 5 c 0,1.385 1.115,2.5 2.5,2.5 h 9 c 1.385,0 2.5,-1.115 2.5,-2.5 v -5 c 0,-1.385 -1.115,-2.5 -2.5,-2.5 z m 1.5,3 c 1.09864,0 2,0.90136 2,2 0,0.36345 -0.0997,0.70522 -0.27149,1 h 2.54297 C 97.09969,160.70521 97,160.36344 97,159.99999 c 0,-1.09864 0.90135,-2 2,-2 1.09864,0 2,0.90136 2,2 0,1.09798 -0.87014,2 -2,2 h -6.00005 c -1.09865,0 -2,-0.90136 -2,-2 0,-1.09864 0.90135,-2 2,-2 z m 0,1 c -0.55821,0 -1,0.44179 -1,1 0,0.5582 0.44179,1 1,1 0.5582,0 1,-0.4418 1,-1 0,-0.55821 -0.4418,-1 -1,-1 z m 6,0 c -0.55821,0 -1,0.44179 -1,1 0,0.5582 0.44179,1 1,1 h 0.002 c 0.55728,-0.001 0.99805,-0.44245 0.99805,-1 0,-0.55821 -0.4418,-1 -1,-1 z" /></g></svg>
