<?xml version="1.0" encoding="UTF-8" standalone="no"?>
<!-- Created with Inkscape (http://www.inkscape.org/) -->

<svg
   width="14"
   height="12"
   viewBox="0 0 14 12.000001"
   version="1.1"
   id="svg5"
   xml:space="preserve"
   xmlns="http://www.w3.org/2000/svg"
   xmlns:svg="http://www.w3.org/2000/svg"><defs
     id="defs2" /><g
     id="layer1"
     transform="translate(-203,-45)"><path
       id="path22991-5-9"
       style="color:#000000;opacity:1;fill:#000000;fill-rule:evenodd;stroke-linejoin:round;stroke-miterlimit:128.3;stroke-dashoffset:3;-inkscape-stroke:none"
       d="m 212,45 c -1.09272,0 -2,0.907277 -2,2 0,1.092723 0.90728,2 2,2 1.09272,0 2,-0.907277 2,-2 0,-1.092723 -0.90728,-2 -2,-2 z m -4.5,5 a 1.50015,1.50015 0 0 0 -1.06055,0.439453 l -3,3 A 1.50015,1.50015 0 0 0 203,54.5 v 1 a 1.50015,1.50015 0 0 0 1.5,1.5 h 11 a 1.50015,1.50015 0 0 0 1.5,-1.5 v -1 h -0.004 a 1.50015,1.50015 0 0 0 -0.43554,-1.060547 l -2.5,-2.5 a 1.50015,1.50015 0 0 0 -2.1211,0 L 210.5,52.378906 208.56055,50.439453 A 1.50015,1.50015 0 0 0 207.5,50 Z" /></g></svg>
