<?xml version="1.0" encoding="UTF-8" standalone="no"?>
<!-- Created with Inkscape (http://www.inkscape.org/) -->

<svg
   width="14"
   height="13"
   viewBox="0 0 14 13.000001"
   version="1.1"
   id="svg5"
   xml:space="preserve"
   xmlns="http://www.w3.org/2000/svg"
   xmlns:svg="http://www.w3.org/2000/svg"><defs
     id="defs2" /><g
     id="layer1"
     transform="translate(-113,-152.99999)"><path
       id="path7160-6"
       style="color:#000000;fill:#000000;fill-opacity:1;fill-rule:evenodd;stroke-linecap:square;stroke-linejoin:round;stroke-miterlimit:128.3;-inkscape-stroke:none"
       d="m 120,152.99999 c -0.83333,0 -1.5499,0.38583 -2.08203,0.91797 -0.53213,0.53213 -0.91797,1.2487 -0.91797,2.08203 v 4.17578 c -0.31402,-0.1135 -0.65009,-0.17578 -1,-0.17578 -1.63909,0 -3,1.36091 -3,3 0,1.63909 1.36091,3 3,3 1.63909,0 3,-1.36091 3,-3 v -1 -6 c 0,-0.16414 0.1108,-0.44172 0.32227,-0.6582 0.003,-0.003 0.007,-0.007 0.01,-0.01 0.21763,-0.21763 0.50106,-0.3318 0.66773,-0.3318 h 4 c 0.16667,0 0.4501,0.11417 0.66797,0.33203 0.21786,0.21787 0.33203,0.5013 0.33203,0.66797 v 4.17578 c -0.31402,-0.1135 -0.65009,-0.17578 -1,-0.17578 -1.63909,0 -3,1.36091 -3,3 0,1.63909 1.36091,3 3,3 1.63909,0 3,-1.36091 3,-3 v -1 -6 c 0,-0.83333 -0.38583,-1.5499 -0.91797,-2.08203 -0.53213,-0.53214 -1.2487,-0.91797 -2.08203,-0.91797 z" /></g></svg>
