<?xml version="1.0" encoding="UTF-8" standalone="no"?>
<!-- Created with Inkscape (http://www.inkscape.org/) -->

<svg
   width="10"
   height="12"
   viewBox="0 0 10 12.000001"
   version="1.1"
   id="svg5"
   xml:space="preserve"
   xmlns="http://www.w3.org/2000/svg"
   xmlns:svg="http://www.w3.org/2000/svg"><defs
     id="defs2" /><g
     id="layer1"
     transform="translate(-235,-154)"><g
       id="g2"
       transform="translate(232,151.99999)"><path
         id="rect31-7"
         style="stroke-width:2;stroke-linecap:round;stroke-linejoin:round;stroke-miterlimit:58;stroke-dashoffset:3;paint-order:stroke fill markers"
         d="m 6,2.00001 c -0.5539994,0 -1,0.4460006 -1,1 v 2 H 3.5 c -0.2769997,0 -0.5,0.2230003 -0.5,0.5 v 1 c 0,0.2769997 0.2230003,0.5 0.5,0.5 h 0.4960938 v 1.5 c 0,1.3849986 1.1150013,2.5 2.5,2.5 H 7 v 2 c 0,0.553999 0.4460006,1 1,1 0.5539994,0 1,-0.446001 1,-1 v -2 h 0.4960938 c 1.3849982,0 2.5000002,-1.1150014 2.5000002,-2.5 v -1.5 H 12.5 c 0.277,0 0.5,-0.2230003 0.5,-0.5 v -1 c 0,-0.2769997 -0.223,-0.5 -0.5,-0.5 H 11 v -2 c 0,-0.5539994 -0.446001,-1 -1,-1 -0.5539994,0 -1,0.4460006 -1,1 v 2 H 7 v -2 c 0,-0.5539994 -0.4460006,-1 -1,-1 z" /></g></g></svg>
