<?xml version="1.0" encoding="UTF-8" standalone="no"?>
<!-- Created with Inkscape (http://www.inkscape.org/) -->

<svg
   width="10.888584"
   height="13.000003"
   viewBox="0 0 10.888584 13.000004"
   version="1.1"
   id="svg5"
   xml:space="preserve"
   xmlns="http://www.w3.org/2000/svg"
   xmlns:svg="http://www.w3.org/2000/svg"><defs
     id="defs2" /><g
     id="layer1"
     transform="translate(-186.55469,-153)"><g
       id="g42-0-6"
       transform="translate(183.99999,151.99999)"><g
         id="g10-4-6-9"
         transform="translate(-523,79.000001)"><path
           id="rect2-2-5-1-3"
           style="stroke-miterlimit:58;stroke-dashoffset:3;paint-order:markers fill stroke"
           d="m 531.00001,-77.999991 c -1.662,0 -3,1.338002 -3,3 v 2 c 0,1.661998 1.338,3 3,3 1.662,0 3,-1.338002 3,-3 v -2 c 0,-1.661998 -1.338,-3 -3,-3 z m -4.69531,6.597656 c -0.41421,0 -0.75,0.335786 -0.75,0.75 8.4e-4,0.489061 1.41918,3.058693 4.44529,3.568363 v 2.083984 h 2 v -2.083984 c 0.77968,-0.131374 3.109,-0.72549 4.36519,-3.232425 0.0518,-0.104389 0.0785,-0.21941 0.0781,-0.335938 0,-0.414214 -0.33579,-0.75 -0.75,-0.75 -0.37392,3.18e-4 -0.59629,0.255773 -0.68162,0.437503 -1.55634,3.132686 -6.26027,3.426529 -8.03516,-0.02344 -0.12736,-0.254222 -0.38753,-0.414561 -0.67187,-0.414063 z" /></g></g></g></svg>
