<?xml version="1.0" encoding="UTF-8" standalone="no"?>
<!-- Created with Inkscape (http://www.inkscape.org/) -->

<svg
   width="13"
   height="13"
   viewBox="0 0 13 13.000001"
   version="1.1"
   id="svg5"
   xml:space="preserve"
   xmlns="http://www.w3.org/2000/svg"
   xmlns:svg="http://www.w3.org/2000/svg"><defs
     id="defs2" /><g
     id="layer1"
     transform="translate(-137.5,-153)"><g
       id="g11-9-3-8"
       transform="translate(135.99948,152.0009)"><path
         id="path7-4-7-4"
         style="stroke:none;stroke-miterlimit:58;stroke-dashoffset:3;stroke-opacity:0.5;paint-order:markers fill stroke"
         d="m 7.25052,0.9991 c -0.2769997,0 -0.5,0.2230003 -0.5,0.5 V 2.1436312 C 6.1565992,2.2820807 5.599255,2.5153059 5.0962231,2.8291781 L 4.4907544,2.2237094 C 4.294886,2.027841 3.9795915,2.027841 3.7837231,2.2237094 L 2.7231762,3.2842562 c -0.1958683,0.1958684 -0.1958683,0.5111629 0,0.7070313 L 3.3305981,4.5987094 C 3.0175537,5.1010472 2.7832762,5.656149 2.6450512,6.2491 H 2.00052 c -0.2769997,0 -0.5,0.2230003 -0.5,0.5 v 1.5 c 0,0.2769997 0.2230003,0.5 0.5,0.5 h 0.6445312 c 0.138189,0.5936703 0.3721215,1.1495096 0.6855469,1.652344 l -0.6074219,0.607422 c -0.1958683,0.195868 -0.1958683,0.511162 0,0.707031 l 1.0605469,1.060547 c 0.1958684,0.195868 0.5111629,0.195868 0.7070313,0 l 0.6074218,-0.607422 c 0.5022476,0.313023 1.0595085,0.547323 1.6523438,0.685547 V 13.4991 c 0,0.277 0.2230003,0.5 0.5,0.5 h 1.5 c 0.2769997,0 0.5,-0.223 0.5,-0.5 v -0.644531 c 0.5927642,-0.138223 1.148228,-0.372588 1.650391,-0.685547 l 0.607421,0.607422 c 0.195869,0.195868 0.511163,0.195868 0.707032,0 l 1.060547,-1.060547 c 0.195868,-0.195869 0.195868,-0.511163 0,-0.707031 L 12.670442,10.403397 C 12.984237,9.9001951 13.217726,9.3432561 13.355989,8.7491 h 0.644531 c 0.277,0 0.5,-0.2230003 0.5,-0.5 v -1.5 c 0,-0.2769997 -0.223,-0.5 -0.5,-0.5 H 13.355989 C 13.217667,5.6565293 12.983784,5.0990329 12.670442,4.5967562 l 0.605469,-0.6054687 c 0.195868,-0.1958684 0.195868,-0.5111629 0,-0.7070313 L 12.215364,2.2237094 c -0.195869,-0.1958684 -0.511163,-0.1958684 -0.707032,0 L 10.902864,2.8291781 C 10.400505,2.5157799 9.8432713,2.2821041 9.25052,2.1436312 V 1.4991 c 0,-0.2769997 -0.2230003,-0.5 -0.5,-0.5 z m 0.75,3 c 1.9306761,5.989e-4 3.499971,1.5689901 3.5,3.5 0.0012,1.9305256 -1.5699748,3.501232 -3.5,3.5 -1.9302691,0.0012 -3.5011954,-1.5696674 -3.5,-3.5 -0.0012,-1.9302691 1.5693239,-3.500599 3.5,-3.5 z" /><g
         id="g9-7-4-3" /><g
         id="g9-2-6-4-0"
         transform="rotate(45,8.0000002,7.4999995)" /></g></g></svg>
