<?xml version="1.0" encoding="UTF-8" standalone="no"?>
<!-- Created with Inkscape (http://www.inkscape.org/) -->

<svg
   width="14.002151"
   height="12.008684"
   viewBox="0 0 14.002151 12.008685"
   version="1.1"
   id="svg5"
   xml:space="preserve"
   xmlns="http://www.w3.org/2000/svg"
   xmlns:svg="http://www.w3.org/2000/svg"><defs
     id="defs2" /><g
     id="layer1"
     transform="translate(-352.98893,-312.99998)"><g
       id="g9422-0-2-1"
       transform="translate(351.99023,310.99916)"
       style="fill:#000000;stroke:#000000"><g
         id="path6791-6-0-8"><path
           style="color:#000000;fill-opacity:0;fill-rule:evenodd;stroke:none;stroke-width:2;stroke-linecap:round;stroke-linejoin:round;-inkscape-stroke:none;paint-order:markers fill stroke"
           d="M 6.9999858,3.0008177 8,7.5 v 1 L 6.9999858,13.000818 9.5,8.5 v -1 z"
           id="path3045-9" /><path
           id="path3047-6"
           style="color:#000000;fill-rule:evenodd;stroke:none;stroke-linecap:round;stroke-linejoin:round;-inkscape-stroke:none;paint-order:markers fill stroke"
           d="M 6.9980469,2.000818 C 6.8797614,2.0009792 6.7607305,2.0229566 6.6445312,2.0672243 6.1799488,2.2436729 5.9154065,2.7344904 6.0234375,3.219568 L 7,7.000818 H 4 L 1.9003906,5.2000367 C 1.5840297,4.7790437 0.90674273,5.0820047 1.0097656,5.5984742 L 2,8.000818 1.0097656,10.403162 c -0.10556814,0.522782 0.5712346,0.825563 0.890625,0.398437 L 4,9.000818 H 7 L 6.0234375,12.784021 C 5.7675465,13.913893 7.3164118,14.50207 7.875,13.487146 L 10,9.000818 h 4.5 c 0.445319,-1.744e-4 0.668293,-0.5385185 0.353516,-0.8535156 l -1,-1 C 13.75976,7.0535343 13.6326,7.0008434 13.5,7.000818 H 10 L 7.875,2.516443 C 7.693961,2.1902808 7.3529032,2.0003344 6.9980469,2.000818 Z" /></g><g
         id="path6856-2-2-4" /><g
         id="path9195-6-3-3" /></g></g></svg>
