<?xml version="1.0" encoding="UTF-8" standalone="no"?>
<!-- Created with Inkscape (http://www.inkscape.org/) -->

<svg
   width="16"
   height="13"
   viewBox="0 0 16 13.000001"
   version="1.1"
   id="svg5"
   xml:space="preserve"
   xmlns="http://www.w3.org/2000/svg"
   xmlns:svg="http://www.w3.org/2000/svg"><defs
     id="defs2" /><g
     id="layer1"
     transform="translate(-352,-49)"><g
       id="g6108-8-4"
       transform="translate(352,48)"
       style="fill:#000000;fill-opacity:1"><path
         style="color:#000000;fill:#000000;fill-opacity:0.354512;fill-rule:evenodd;stroke-linecap:round;stroke-linejoin:round;stroke-miterlimit:128.3;-inkscape-stroke:none"
         d="m 12.292969,2.2929688 c -0.390424,0.390507 -0.390424,1.0235555 0,1.4140625 C 14.057265,5.4713272 14,7.000001 14,8 c 0,0.999999 0.05726,2.528673 -1.707031,4.292969 -0.390423,0.390507 -0.390423,1.023555 0,1.414062 0.390507,0.390423 1.023555,0.390423 1.414062,0 C 15.942731,11.471331 16,8.999999 16,8 16,7.000001 15.942731,4.5286688 13.707031,2.2929688 c -0.389644,-0.389727 -1.024388,-0.3897575 -1.414062,0 z"
         id="path6008-2-9-1-4" /><path
         id="path6073-7-1-0-4"
         style="color:#000000;fill:#000000;fill-opacity:1;fill-rule:evenodd;stroke-linecap:round;stroke-linejoin:round;stroke-miterlimit:128.3;-inkscape-stroke:none"
         d="M 6.5,1 C 6.0000005,1 5.7426794,1.2573206 5.5,1.5 L 3,4 H 1.5 C 0.67160968,4.0000828 8.2826609e-5,4.6716096 0,5.5 v 4 c 8.2826609e-5,0.82839 0.67160968,1.499917 1.5,1.5 H 3 l 2.5,2.5 c 0.2351759,0.235176 0.5000005,0.5 1,0.5 H 7 V 1 Z M 9.1054688,4.5527344 C 8.8583815,5.0467654 9.0586459,5.6475588 9.5527344,5.8945312 10.012755,6.1245412 10.5,7.18011 10.5,8 c 0,0.81989 -0.487245,1.8754586 -0.9472656,2.105469 -0.4940886,0.246972 -0.6943531,0.847766 -0.4472656,1.341797 0.2469726,0.494088 0.8477663,0.694353 1.3417972,0.447265 C 11.987241,11.124543 12.5,9.4161736 12.5,8 12.5,6.5838264 11.987241,4.8754569 10.447266,4.1054688 9.9585699,3.8613878 9.354205,4.0544129 9.1054688,4.5527344 Z" /><g
         id="path7947-0-7-3-7"
         style="fill:#000000;fill-opacity:1" /></g></g></svg>
