<?xml version="1.0" encoding="UTF-8" standalone="no"?>
<!-- Created with Inkscape (http://www.inkscape.org/) -->

<svg
   width="14.999849"
   height="13"
   viewBox="0 0 14.999849 13.000001"
   version="1.1"
   id="svg5"
   xml:space="preserve"
   xmlns="http://www.w3.org/2000/svg"
   xmlns:svg="http://www.w3.org/2000/svg"><defs
     id="defs2" /><g
     id="layer1"
     transform="translate(-304,-49)"><g
       id="g7286"><g
         id="g9941-8-8"
         transform="translate(304,48)"
         style="fill:#000000;fill-opacity:1"><g
           id="path7947-85-5"
           style="fill:#000000;fill-opacity:1" /><g
           id="path8945-3-5"
           style="fill:#000000;fill-opacity:1"><path
             style="color:#000000;fill:#000000;fill-opacity:1;fill-rule:evenodd;stroke-width:2;stroke-linecap:round;stroke-linejoin:round;stroke-miterlimit:128.3;-inkscape-stroke:none"
             d="m 10,6 4,4"
             id="path7264" /><path
             id="path7266"
             style="color:#000000;fill:#000000;fill-opacity:1;fill-rule:evenodd;stroke-linecap:round;stroke-linejoin:round;stroke-miterlimit:128.3;-inkscape-stroke:none"
             d="M 6.5,1 C 6.0000005,1 5.7426794,1.2573206 5.5,1.5 L 3,4 H 1.5 C 0.67160968,4.0000828 8.2826609e-5,4.6716096 0,5.5 v 4 c 8.2826609e-5,0.82839 0.67160968,1.499917 1.5,1.5 H 3 l 2.5,2.5 c 0.2351759,0.235176 0.5000005,0.5 1,0.5 H 7 V 1 Z m 2.7929688,4.2929688 c -0.3904232,0.3905066 -0.3904232,1.0235558 0,1.4140624 L 10.585938,8 9.2929688,9.2929688 c -0.3904231,0.3905066 -0.3904231,1.0235562 0,1.4140622 0.3905066,0.390423 1.0235562,0.390423 1.4140622,0 L 12,9.4140625 13.292969,10.707031 c 0.390506,0.390423 1.023556,0.390423 1.414062,0 0.390423,-0.390506 0.390423,-1.0235556 0,-1.4140622 L 13.414062,8 14.707031,6.7070312 c 0.390424,-0.3905066 0.390424,-1.0235558 0,-1.4140624 -0.389643,-0.3897267 -1.024389,-0.3897572 -1.414062,0 L 12,6.5859375 10.707031,5.2929688 c -0.389983,-0.3900662 -1.0239749,-0.390171 -1.4140622,0 z" /></g><g
           id="path8945-2-8-3"
           style="fill:#000000;fill-opacity:1" /></g><g
         id="g6108-8-4-1-1"
         transform="translate(304,48)"
         style="fill:#000000;fill-opacity:1"><g
           id="path7947-0-7-3-7-9-8"
           style="fill:#000000;fill-opacity:1"><path
             style="color:#000000;fill:#000000;fill-opacity:1;fill-rule:evenodd;stroke-width:3;stroke-linecap:square;stroke-linejoin:round;stroke-miterlimit:128.3;-inkscape-stroke:none"
             d="m 1.5,6.5 h 2 l 3,-4 v 11 l -3,-4 h -2 z"
             id="path8660-9-7-0-6-6-5" /></g></g></g></g></svg>
