<?xml version="1.0" encoding="UTF-8" standalone="no"?>
<!-- Created with Inkscape (http://www.inkscape.org/) -->

<svg
   width="12.5"
   height="13"
   viewBox="0 0 12.5 13.000001"
   version="1.1"
   id="svg5"
   xml:space="preserve"
   xmlns="http://www.w3.org/2000/svg"
   xmlns:svg="http://www.w3.org/2000/svg"><defs
     id="defs2" /><g
     id="layer1"
     transform="translate(-328,-49)"><g
       id="g6108-8-4-1"
       transform="translate(328,48)"
       style="fill:#000000;fill-opacity:1"><path
         id="path6073-7-1-0-4-5"
         style="color:#000000;fill:#000000;fill-opacity:1;fill-rule:evenodd;stroke-linecap:round;stroke-linejoin:round;stroke-miterlimit:128.3;-inkscape-stroke:none"
         d="M 6.5,1 C 6.0000005,1 5.7426794,1.2573206 5.5,1.5 L 3,4 H 1.5 C 0.67160968,4.0000828 8.2826609e-5,4.6716096 0,5.5 v 4 c 8.2826609e-5,0.82839 0.67160968,1.499917 1.5,1.5 H 3 l 2.5,2.5 c 0.2351759,0.235176 0.5000005,0.5 1,0.5 H 7 V 1 Z M 9.9667969,4 C 9.6120735,4.0121916 9.2748011,4.2134916 9.1054688,4.5527344 8.8583817,5.0467649 9.0586464,5.6475591 9.5527344,5.8945312 10.012755,6.1245412 10.5,7.18011 10.5,8 c 0,0.81989 -0.487245,1.8754586 -0.9472656,2.105469 -0.4940881,0.246972 -0.6943529,0.847766 -0.4472656,1.341797 0.2469723,0.494087 0.8477664,0.694353 1.3417972,0.447265 C 11.987241,11.124543 12.5,9.4161736 12.5,8 12.5,6.5838264 11.987241,4.8754569 10.447266,4.1054688 10.29317,4.0282894 10.128035,3.9944584 9.9667969,4 Z" /><g
         id="path7947-0-7-3-7-9"
         style="fill:#000000;fill-opacity:1" /></g></g></svg>
