<?xml version="1.0" encoding="UTF-8" standalone="no"?>
<!-- Created with Inkscape (http://www.inkscape.org/) -->

<svg
   width="7.7068377"
   height="13.001681"
   viewBox="0 0 7.7068377 13.001682"
   version="1.1"
   id="svg5"
   xml:space="preserve"
   xmlns="http://www.w3.org/2000/svg"
   xmlns:svg="http://www.w3.org/2000/svg"><defs
     id="defs2" /><g
     id="layer1"
     transform="translate(-332.29297,-233.00003)"><path
       style="color:#000000;fill:#000000;stroke-linejoin:round;stroke-miterlimit:58;stroke-dashoffset:3;-inkscape-stroke:none;paint-order:markers stroke fill"
       d="M 335.61719,233.07617 C 335.2436,233.23101 335.00003,233.5956 335,234 v 2.67187 l -1.29297,-1.29296 -1.41406,1.41406 L 335,239.5 v 0 l -2.70703,2.70703 1.41406,1.41406 L 335,242.32813 V 245 c 3.5e-4,0.89064 1.07704,1.33659 1.70703,0.70703 l 3,-3 c 0.39037,-0.39053 0.39037,-1.02353 0,-1.41406 l -1.79297,-1.79297 1.79297,-1.79297 c 0.39037,-0.39053 0.39037,-1.02353 0,-1.41406 l -3,-3 c -0.28601,-0.28601 -0.71615,-0.37157 -1.08984,-0.2168 z M 337,236 l 1,1 -1,1 z m 0,5 1,1 -1,1 z"
       id="path8552-9-8" /></g></svg>
