<?xml version="1.0" encoding="UTF-8" standalone="no"?>
<!-- Created with Inkscape (http://www.inkscape.org/) -->

<svg
   width="12.20312"
   height="13.001281"
   viewBox="0 0 12.20312 13.001282"
   version="1.1"
   id="svg5"
   xml:space="preserve"
   xmlns="http://www.w3.org/2000/svg"
   xmlns:svg="http://www.w3.org/2000/svg"><defs
     id="defs2" /><g
     id="layer1"
     transform="translate(-354.84766,-233.00021)"><path
       id="path8552-61-6"
       style="color:#000000;fill:#000000;stroke-linejoin:round;stroke-miterlimit:58;stroke-dashoffset:3;-inkscape-stroke:none;paint-order:markers stroke fill"
       d="m 359.89063,233.00173 c -0.10956,0.006 -0.21913,0.0307 -0.32422,0.0742 -0.37359,0.15484 -0.61716,0.51943 -0.61719,0.92383 v 2.29688 l -2.89844,-2.89844 -1.20312,1.20312 4.10156,4.10156 4.35547,4.35547 2.54297,2.54297 1.20312,-1.20312 -5.04297,-5.04297 1.64844,-1.64844 c 0.39037,-0.39053 0.39037,-1.02353 0,-1.41406 l -3,-3 c -0.17875,-0.17876 -0.41386,-0.2786 -0.65625,-0.29102 -0.0364,-0.002 -0.0729,-0.002 -0.10937,0 z m 1.05859,2.99805 1,1 -1,1 z m -2.80469,4.30469 -1.90234,1.90234 1.41406,1.41406 1.29297,-1.29297 v 2.67188 c 3.5e-4,0.89064 1.07704,1.33659 1.70703,0.70703 l 1.44531,-1.44531 z" /></g></svg>
