<?xml version="1.0" encoding="UTF-8" standalone="no"?>
<!-- Created with Inkscape (http://www.inkscape.org/) -->

<svg
   width="10"
   height="9.0003033"
   viewBox="0 0 10 9.0003038"
   version="1.1"
   id="svg5"
   xml:space="preserve"
   xmlns="http://www.w3.org/2000/svg"
   xmlns:svg="http://www.w3.org/2000/svg"><defs
     id="defs2" /><g
     id="layer1"
     transform="translate(-394.96875,-338.99968)"><g
       id="path13653-0-8-6"
       transform="matrix(-1,0,0,1,410.96875,348.99998)"
       style="fill:#000000;fill-opacity:1"><path
         id="path14599-6-0"
         style="color:#000000;fill:#000000;fill-opacity:1;fill-rule:evenodd;stroke-linecap:round;stroke-linejoin:round;stroke-miterlimit:128.3;stroke-dashoffset:3;-inkscape-stroke:none"
         d="M 7.46875,-10 A 1.50015,1.50015 0 0 0 6.8300781,-9.8417969 1.50015,1.50015 0 0 0 6,-8.5 v 6 a 1.50015,1.50015 0 0 0 2.4003906,1.1992188 l 4.0000004,-3 a 1.50015,1.50015 0 0 0 0,-2.3984376 l -4.0000004,-3 A 1.50015,1.50015 0 0 0 7.46875,-10 Z M 15,-10 c -0.553999,0 -1,0.4460007 -1,1 v 7 c 0,0.5539993 0.446001,1 1,1 0.553999,0 1,-0.4460007 1,-1 v -7 c 0,-0.5539993 -0.446001,-1 -1,-1 z" /></g></g></svg>
