<?xml version="1.0" encoding="UTF-8" standalone="no"?>
<!-- Created with Inkscape (http://www.inkscape.org/) -->

<svg
   width="13.999758"
   height="13.001731"
   viewBox="0 0 13.999758 13.001732"
   version="1.1"
   id="svg5"
   xml:space="preserve"
   xmlns="http://www.w3.org/2000/svg"
   xmlns:svg="http://www.w3.org/2000/svg"><defs
     id="defs2" /><g
     id="layer1"
     transform="translate(-401.00012,-272.99983)"><path
       id="path37485-6-3-1"
       style="color:#000000;fill:#000000;fill-rule:evenodd;stroke-linecap:square;stroke-linejoin:round;stroke-miterlimit:128.3;stroke-dashoffset:3;-inkscape-stroke:none"
       d="m 410,273.99999 v 1 h -5 c -1.55941,0 -3,1.44057 -3,3 v 1 h 2 v -1 c 0,-0.43751 0.56249,-1 1,-1 h 5 v 1 c 1.7e-4,0.79858 0.89013,1.27487 1.55469,0.83203 l 3,-2 c 0.59358,-0.39588 0.59358,-1.26818 0,-1.66406 l -3,-2 c -0.3048,-0.20301 -0.69856,-0.22523 -1.02524,-0.05 -0.32668,0.17526 -0.52929,0.51368 -0.52945,0.88201 z m -5.55469,6.16797 -3,2 c -0.59359,0.39588 -0.59359,1.26818 0,1.66406 l 3,2 c 0.66456,0.44284 1.55452,-0.0334 1.55469,-0.83203 v -1 h 5 c 1.55941,0 3,-1.44057 3,-3 v -1 h -2 v 1 c 0,0.43751 -0.56249,1 -1,1 h -5 v -1 c -1.7e-4,-0.36833 -0.20277,-0.70675 -0.52734,-0.88086 -0.32631,-0.17521 -0.72019,-0.15571 -1.02735,0.0488 z" /></g></svg>
