<?xml version="1.0" encoding="UTF-8" standalone="no"?>
<!-- Created with Inkscape (http://www.inkscape.org/) -->

<svg
   width="13.000586"
   height="8.0011854"
   viewBox="0 0 13.000586 8.0011859"
   version="1.1"
   id="svg5"
   xml:space="preserve"
   xmlns="http://www.w3.org/2000/svg"
   xmlns:svg="http://www.w3.org/2000/svg"><defs
     id="defs2" /><g
     id="layer1"
     transform="translate(-441.99941,-360.00102)"><g
       id="g8445-2-9-3-4"
       transform="matrix(-1,0,0,1,457.00075,356.00024)"
       style="fill:none;fill-opacity:0.474106"><path
         id="path7665-6"
         style="color:#000000;fill:#333333;fill-opacity:0.352941;fill-rule:evenodd;stroke-linecap:round;stroke-linejoin:round;stroke-miterlimit:128.3;-inkscape-stroke:none;paint-order:stroke fill markers"
         d="m 10.600359,4.1989787 4,3 c 0.534635,0.3999996 0.534635,1.2015629 0,1.6015625 l -4,2.9999998 C 9.9408652,12.294453 9.0005127,11.823702 9.00075,10.99976 v -6 C 9.0007241,4.6209691 9.2147037,4.2746699 9.5534844,4.1052287 9.8785325,3.942576 10.290419,3.9669636 10.600359,4.1989787 Z m -6.9999996,0 4,3 c 0.5346343,0.3999996 0.5346343,1.2015629 0,1.6015625 l -4,2.9999998 C 2.9408652,12.294454 2.0005124,11.823703 2.00075,10.99976 v -6 c -2.59e-5,-0.3787909 0.2139537,-0.7250901 0.5527344,-0.8945313 0.3250477,-0.1626526 0.736935,-0.1382654 1.046875,0.09375 z" /></g></g></svg>
