<?xml version="1.0" encoding="UTF-8" standalone="no"?>
<!-- Created with Inkscape (http://www.inkscape.org/) -->

<svg
   width="13.000586"
   height="8.0011263"
   viewBox="0 0 13.000586 8.0011268"
   version="1.1"
   id="svg5"
   xml:space="preserve"
   xmlns="http://www.w3.org/2000/svg"
   xmlns:svg="http://www.w3.org/2000/svg"><defs
     id="defs2" /><g
     id="layer1"
     transform="translate(-393.99941,-360.00108)"><g
       id="g8445-9-4-1"
       transform="matrix(-1,0,0,1,409.00016,356.00024)"
       style="fill:#000000;fill-opacity:1"><g
         id="path6935-3-7-0"
         style="fill:#000000;fill-opacity:1"><path
           id="path7489-2"
           style="color:#000000;fill:#000000;fill-opacity:1;fill-rule:evenodd;stroke-linecap:round;stroke-linejoin:round;stroke-miterlimit:128.3;-inkscape-stroke:none;paint-order:stroke fill markers"
           d="m 10.599769,4.1989787 4,3 c 0.534635,0.3999996 0.534635,1.2015629 0,1.6015625 l -4,2.9999998 C 9.9402752,12.294453 8.9999227,11.823702 9.00016,10.99976 v -6 C 9.0001341,4.6209691 9.2141137,4.2746699 9.5528944,4.1052287 9.8620187,3.9505442 10.276003,3.9566134 10.599769,4.1989787 Z m -6.9999996,0 4,3 c 0.5346343,0.3999996 0.5346343,1.2015629 0,1.6015625 l -4,2.9999998 C 2.9402752,12.294454 1.9999224,11.823703 2.00016,10.99976 v -6 C 2.0001341,4.6209691 2.2141137,4.2746699 2.5528944,4.1052287 2.8620181,3.9505444 3.2760031,3.9566132 3.5997694,4.1989787 Z" /></g><g
         id="path6935-7-6-8-2"
         style="fill:#000000;fill-opacity:1" /></g></g></svg>
