<?xml version="1.0" encoding="UTF-8" standalone="no"?>
<!-- Created with Inkscape (http://www.inkscape.org/) -->

<svg
   width="14.003422"
   height="13.018508"
   viewBox="0 0 14.003422 13.018509"
   version="1.1"
   id="svg5"
   xml:space="preserve"
   xmlns="http://www.w3.org/2000/svg"
   xmlns:svg="http://www.w3.org/2000/svg"><defs
     id="defs2" /><g
     id="layer1"
     transform="translate(-159.99829,-53)"><g
       id="path5923-6-1"><path
         style="color:#000000;fill:#000000;fill-rule:evenodd;stroke-linecap:round;stroke-linejoin:round;stroke-miterlimit:128.3;stroke-dashoffset:3;-inkscape-stroke:none"
         d="m 167,53 c -0.37923,3.44e-4 -0.72563,0.215148 -0.89453,0.554687 l -1.72461,3.460938 H 161 c -0.89064,3.51e-4 -1.33659,1.077037 -0.70703,1.707031 l 2.59961,2.59961 -0.86328,3.451171 c -0.20715,0.829115 0.65378,1.519282 1.41797,1.136719 L 167,64.132812 l 3.55273,1.777344 c 0.76419,0.382563 1.62512,-0.307604 1.41797,-1.136719 l -0.86328,-3.451171 2.59961,-2.59961 c 0.62956,-0.629994 0.18361,-1.70668 -0.70703,-1.707031 h -3.38086 l -1.72461,-3.460938 C 167.72563,53.215148 167.37923,53.000344 167,53 Z"
         id="path14" /></g></g></svg>
