<?xml version="1.0" encoding="UTF-8" standalone="no"?>
<!-- Created with Inkscape (http://www.inkscape.org/) -->

<svg
   width="13.999413"
   height="13.015958"
   viewBox="0 0 13.999413 13.015959"
   version="1.1"
   id="svg5"
   xml:space="preserve"
   xmlns="http://www.w3.org/2000/svg"
   xmlns:svg="http://www.w3.org/2000/svg"><defs
     id="defs2" /><g
     id="layer1"
     transform="translate(-136.00029,-53)"><g
       id="path5923-6"><path
         style="color:#000000;fill:#000000;fill-opacity:0;fill-rule:evenodd;stroke-linecap:round;stroke-linejoin:round;stroke-miterlimit:128.3;stroke-dashoffset:3;-inkscape-stroke:none"
         d="m 142.99981,53.99988 2.00005,4.01567 h 4 l -3,3 1,4 -4,-2 -4,2 1,-4 -3,-3 h 4 z"
         id="path10" /><path
         style="color:#000000;fill:#000000;fill-rule:evenodd;stroke-linecap:round;stroke-linejoin:round;stroke-miterlimit:128.3;stroke-dashoffset:3;-inkscape-stroke:none"
         d="m 143,53 a 1.0001,1.0001 0 0 0 -0.89453,0.554687 l -1.72461,3.460938 H 137 a 1.0001,1.0001 0 0 0 -0.70703,1.707031 l 2.59961,2.59961 -0.86328,3.451171 a 1.0001,1.0001 0 0 0 1.41797,1.136719 L 143,64.132812 l 3.55273,1.777344 a 1.0001,1.0001 0 0 0 1.41797,-1.136719 l -0.86328,-3.451171 2.59961,-2.59961 A 1.0001,1.0001 0 0 0 149,57.015625 h -3.38086 l -1.72461,-3.460938 A 1.0001,1.0001 0 0 0 143,53 Z m 0,3.242187 1.10547,2.21875 A 1.0001,1.0001 0 0 0 145,59.015625 h 1.58594 l -1.29297,1.292969 a 1.0001,1.0001 0 0 0 -0.26367,0.949218 l 0.47265,1.890625 -2.05468,-1.027343 a 1.0001,1.0001 0 0 0 -0.89454,0 l -2.05468,1.027343 0.47265,-1.890625 a 1.0001,1.0001 0 0 0 -0.26367,-0.949218 l -1.29297,-1.292969 H 141 a 1.0001,1.0001 0 0 0 0.89453,-0.554688 z"
         id="path11" /></g></g></svg>
