<?xml version="1.0" encoding="UTF-8" standalone="no"?>
<!-- Created with Inkscape (http://www.inkscape.org/) -->

<svg
   width="14"
   height="13"
   viewBox="0 0 14 13.000001"
   version="1.1"
   id="svg5"
   xml:space="preserve"
   xmlns="http://www.w3.org/2000/svg"
   xmlns:svg="http://www.w3.org/2000/svg"><defs
     id="defs2" /><g
     id="layer1"
     transform="translate(-449,-272.99998)"><path
       id="rect1-3-7-1"
       style="stroke-width:6;stroke-linecap:square;stroke-miterlimit:58;stroke-dashoffset:3;paint-order:markers fill stroke"
       d="m 452,272.99998 c -1.662,0 -3,1.338 -3,3 v 7 c 0,1.662 1.338,3 3,3 h 8 c 1.662,0 3,-1.338 3,-3 v -7 c 0,-1.662 -1.338,-3 -3,-3 z m -1,4 h 1 v 2.02735 h 2 v -2.02735 h 1 v 5 h -1 v -2 h -2 v 2 h -1 z m 7,0 h 2 c 0.54535,0 1,0.45465 1,1 v 3 c 0,0.54535 -0.5,1 -1,1 v 1 h -1 v -1 h -1 c -0.54535,0 -1,-0.45465 -1,-1 v -3 c 0,-0.54535 0.45465,-1 1,-1 z m 0,1 v 3 h 2 v -3 z" /></g></svg>
