<?xml version="1.0" encoding="UTF-8" standalone="no"?>
<!-- Created with Inkscape (http://www.inkscape.org/) -->

<svg
   width="13.999878"
   height="13.001538"
   viewBox="0 0 13.999878 13.001539"
   version="1.1"
   id="svg5"
   xml:space="preserve"
   xmlns="http://www.w3.org/2000/svg"
   xmlns:svg="http://www.w3.org/2000/svg"><defs
     id="defs2" /><g
     id="layer1"
     transform="translate(-377,-273.00002)"><g
       id="g39101-3-7"
       transform="translate(341.75033,276.93673)"><g
         id="path37485-7-6-0"><path
           id="path7587-4"
           style="color:#000000;fill:#000000;fill-rule:evenodd;stroke-linecap:square;stroke-linejoin:round;stroke-miterlimit:128.3;stroke-dashoffset:3;-inkscape-stroke:none"
           d="m 44.777014,-3.8175974 c -0.324575,0.1741105 -0.527179,0.5125345 -0.527344,0.8808594 v 1 h -1 c -0.746207,0 -1.794703,0.3760823 -2.371094,1.38476562 l -0.628906,1.1015625 -0.625,-1.09375 C 39.050417,-1.5491038 38.01724,-1.936738 37.24967,-1.936738 h -2 v 2 h 2 c 0.232428,0 0.426997,0.01433431 0.638672,0.38476562 L 39.097326,2.563262 37.888342,4.6804495 C 37.676667,5.0508808 37.482098,5.063262 37.24967,5.063262 h -2 v 2 h 2 c 0.76757,0 1.800747,-0.385681 2.375,-1.390625 l 0.625,-1.09375 0.628906,1.1015625 c 0.576391,1.0086843 1.624888,1.3828125 2.371094,1.3828125 h 1 v 1 c 1.71e-4,0.7985854 0.890134,1.2748721 1.554688,0.8320312 l 3,-2 c 0.593587,-0.395883 0.593587,-1.2681794 0,-1.6640625 l -3,-2 C 45.497158,3.0266241 45.102234,3.007854 44.777014,3.1824026 44.452439,3.3565131 44.249835,3.6949371 44.24967,4.063262 v 1 h -1 c -0.253792,0 -0.417359,0.00546 -0.634766,-0.375 l -1.21289,-2.125 1.21289,-2.12304688 C 42.83231,0.05975486 42.995879,0.063262 43.24967,0.063262 h 1 v 1 c 1.71e-4,0.7985854 0.890134,1.2748721 1.554688,0.8320312 l 3,-1.99999995 c 0.593587,-0.39588296 0.593587,-1.26817945 0,-1.66406255 l -3,-2 c -0.304757,-0.2029793 -0.698606,-0.2252635 -1.027344,-0.048828 z" /></g><g
         id="path37485-2-5-1-0" /><g
         id="path37646-1-3-0-8"><path
           style="color:#000000;fill:#000000;fill-opacity:0;fill-rule:evenodd;stroke-width:2;stroke-linecap:square;stroke-linejoin:round;stroke-miterlimit:128.3;stroke-dashoffset:3;-inkscape-stroke:none"
           d="m 36.24967,6.0632621 h 1 c 0.5,0 1.114674,-0.200679 1.507639,-0.888368 l 2.989944,-5.2324023 c 0.396899,-0.6945732 1.002417,-0.8792297 1.502417,-0.8792297 h 1"
           id="path7591-5" /></g><g
         id="path37646-1-9-8-6-1"><path
           style="color:#000000;fill:#000000;fill-opacity:0;fill-rule:evenodd;stroke-width:2;stroke-linecap:square;stroke-linejoin:round;stroke-miterlimit:128.3;stroke-dashoffset:3;-inkscape-stroke:none"
           d="m 36.24967,-0.9367379 h 1 c 0.5,0 1.114674,0.200679 1.507639,0.888368 l 2.989944,5.232402 c 0.396899,0.694574 1.002417,0.87923 1.502417,0.87923 h 1"
           id="path7657-6" /></g></g></g></svg>
