<?xml version="1.0" encoding="UTF-8" standalone="no"?>
<!-- Created with Inkscape (http://www.inkscape.org/) -->

<svg
   width="13.000586"
   height="8.0011263"
   viewBox="0 0 13.000586 8.0011268"
   version="1.1"
   id="svg5"
   xml:space="preserve"
   xmlns="http://www.w3.org/2000/svg"
   xmlns:svg="http://www.w3.org/2000/svg"><defs
     id="defs2" /><g
     id="layer1"
     transform="translate(-419,-360.00108)"><g
       id="g8445-29-6"
       transform="translate(417.00009,356.00024)"
       style="fill:#000000;fill-opacity:1"><g
         id="path6935-31-4"
         style="fill:#000000;fill-opacity:1"><path
           id="path7501-8"
           style="color:#000000;fill:#000000;fill-opacity:1;fill-rule:evenodd;stroke-linecap:round;stroke-linejoin:round;stroke-miterlimit:128.3;-inkscape-stroke:none;paint-order:stroke fill markers"
           d="M 2.5526444,4.1052287 C 2.2138637,4.2746699 1.9998841,4.6209691 1.99991,4.99976 v 6 c -2.376e-4,0.823943 0.9401152,1.294694 1.5996094,0.800781 l 4,-2.9999998 c 0.5346343,-0.3999996 0.5346343,-1.2015629 0,-1.6015625 l -4,-3 C 3.2757571,3.9566162 2.861773,3.9505419 2.5526444,4.1052287 Z m 7,0 C 9.2138637,4.2746699 8.9998841,4.6209691 8.99991,4.99976 v 6 c -2.373e-4,0.823942 0.9401152,1.294693 1.599609,0.800781 l 4,-2.9999998 c 0.534635,-0.3999996 0.534635,-1.2015629 0,-1.6015625 l -4,-3 C 10.275757,3.9566162 9.8617731,3.950542 9.5526444,4.1052287 Z" /></g><g
         id="path6935-7-9-0"
         style="fill:#000000;fill-opacity:1" /></g></g></svg>
