<?xml version="1.0" encoding="UTF-8" standalone="no"?>
<!-- Created with Inkscape (http://www.inkscape.org/) -->

<svg
   width="12"
   height="13"
   viewBox="0 0 12 13.000001"
   version="1.1"
   id="svg5"
   xml:space="preserve"
   xmlns="http://www.w3.org/2000/svg"
   xmlns:svg="http://www.w3.org/2000/svg"><defs
     id="defs2" /><g
     id="layer1"
     transform="translate(-442,-312.99998)"><g
       id="g9304-0-7"
       transform="matrix(1,0,0,0.99865091,439.96912,312.0101)"
       style="fill:#000000;fill-opacity:1;stroke-width:1.00068"><g
         id="rect9083-6-9"
         style="fill:#000000;fill-opacity:1"><path
           id="path11472-7"
           style="color:#000000;fill:#000000;fill-opacity:1;fill-rule:evenodd;stroke-width:1.00068;stroke-linecap:round;stroke-linejoin:round;stroke-miterlimit:128.3;-inkscape-stroke:none"
           d="m 3.53088,0.99121724 a 1.501165,1.5013882 0 0 0 -1.5,1.50007056 V 12.508708 a 1.501165,1.5013882 0 0 0 1.5,1.500071 H 5.5289269 A 1.501165,1.5013882 0 0 0 7.03088,12.508708 V 2.4912878 A 1.501165,1.5013882 0 0 0 5.5289269,0.99121724 Z m 7,0 a 1.501165,1.5013882 0 0 0 -1.5,1.50007056 V 12.508708 a 1.501165,1.5013882 0 0 0 1.5,1.500071 h 1.998047 A 1.501165,1.5013882 0 0 0 14.03088,12.508708 V 2.4912878 A 1.501165,1.5013882 0 0 0 12.528927,0.99121724 Z" /></g><g
         id="rect9083-3-3-4"
         style="fill:#000000;fill-opacity:1" /></g></g></svg>
