<?xml version="1.0" encoding="UTF-8" standalone="no"?>
<!-- Created with Inkscape (http://www.inkscape.org/) -->

<svg
   width="10.47856"
   height="12.970586"
   viewBox="0 0 10.47856 12.970587"
   version="1.1"
   id="svg5"
   xml:space="preserve"
   xmlns="http://www.w3.org/2000/svg"
   xmlns:svg="http://www.w3.org/2000/svg"><defs
     id="defs2" /><g
     id="layer1"
     transform="translate(-321,94.968032)"><path
       id="path13-0-7"
       style="fill:#000000;fill-opacity:1;stroke-width:5;stroke-linecap:round;stroke-linejoin:round;stroke-miterlimit:58;stroke-dashoffset:3;paint-order:stroke fill markers"
       d="m 326.48244,-94.919935 c -3.15977,0.502518 -5.48258,3.231344 -5.48244,6.41992 -1.6e-4,3.58468 2.91585,6.50023 6.50002,6.50002 1.18184,0.0393 2.24262,-0.381257 3.27749,-0.88674 0.52889,-0.292504 0.5363,-0.368944 0.62485,-0.56445 0.0503,-0.121363 0.0762,-0.251447 0.0762,-0.38282 -0.0621,-0.674814 -0.41429,-0.747487 -0.92017,-0.99427 -2.39991,-0.805644 -4.05802,-3.086454 -4.05855,-5.67188 3.3e-4,-1.574152 0.58997,-2.689535 0.98436,-3.25976 0.0326,-0.04743 0.0355,-0.06371 0.127,-0.20896 0.10914,-0.275664 0.0224,-0.51058 -0.0295,-0.61328 -0.11848,-0.233942 -0.32265,-0.333885 -0.43558,-0.373 -0.0545,-0.01769 -0.32047,-0.02598 -0.66368,0.03522 z" /></g></svg>
