<?xml version="1.0" encoding="UTF-8" standalone="no"?>
<!-- Created with Inkscape (http://www.inkscape.org/) -->

<svg
   width="12"
   height="13"
   viewBox="0 0 12 13.000001"
   version="1.1"
   id="svg5"
   xml:space="preserve"
   xmlns="http://www.w3.org/2000/svg"
   xmlns:svg="http://www.w3.org/2000/svg"><defs
     id="defs2" /><g
     id="layer1"
     transform="translate(-290,-233)"><path
       id="path5357-1-43"
       style="fill:#000000;fill-opacity:1;stroke-width:0.1;stroke-linecap:round;stroke-miterlimit:58;stroke-dashoffset:3;paint-order:markers stroke fill"
       d="m 296,233 c -0.97222,0 -1.91898,0.30982 -2.67578,0.89844 C 292.56742,234.48706 292,235.41667 292,236.5 v 0.5 h 2 v -0.5 c 0,-0.41667 0.18259,-0.73706 0.55078,-1.02344 C 294.91898,235.19019 295.47222,235 296,235 c 0.52777,0 1.08102,0.19019 1.44922,0.47656 C 297.81741,235.76294 298,236.08333 298,236.5 v 1.64062 c -0.61519,-0.0879 -1.28531,-0.14096 -2,-0.14062 -2.20611,0.001 -4,0.5 -5,1 -1,0.5 -1,1 -1,1.5 v 4 c 0,1 0.5,1.5 1.5,1.5 h 9 c 1,0 1.5,-0.5 1.5,-1.5 v -4 c 0,-0.5 0,-1 -1,-1.5 -0.2753,-0.13765 -0.61232,-0.27503 -1,-0.40234 V 236.5 c 0,-1.08333 -0.56742,-2.01294 -1.32422,-2.60156 C 297.91898,233.30982 296.97222,233 296,233 Z" /></g></svg>
