<?xml version="1.0" encoding="UTF-8" standalone="no"?>
<!-- Created with Inkscape (http://www.inkscape.org/) -->

<svg
   width="16.000313"
   height="13"
   viewBox="0 0 16.000313 13.000001"
   version="1.1"
   id="svg5"
   xml:space="preserve"
   xmlns="http://www.w3.org/2000/svg"
   xmlns:svg="http://www.w3.org/2000/svg"><defs
     id="defs2" /><g
     id="layer1"
     transform="translate(-263.99985,-313.00001)"><g
       id="g19194-9-8-5-8-6-3-2"
       style="fill:#000000;fill-opacity:1;stroke:#333333"
       transform="translate(264.00001,310.00001)"><path
         style="color:#000000;fill:#000000;fill-opacity:1;fill-rule:evenodd;stroke:none;stroke-linejoin:round;-inkscape-stroke:none;paint-order:markers fill stroke"
         d="m 8,12 c -1.0927238,0 -2,0.907276 -2,2 0,1.092724 0.9072762,2 2,2 1.0927238,0 2,-0.907276 2,-2 0,-1.092724 -0.9072762,-2 -2,-2 z"
         id="path12419-1-7-9-9-1-1-5" /><path
         style="color:#000000;fill:#000000;fill-opacity:0.35445;fill-rule:evenodd;stroke:none;stroke-linecap:round;stroke-linejoin:round;-inkscape-stroke:none;paint-order:markers fill stroke"
         d="M 8,3 C 4.1190515,3 1.284353,5.1949659 0.10546875,7.5527344 A 1,1 0 0 0 0.55273437,8.8945313 1,1 0 0 0 1.8945312,8.4472656 C 2.715645,6.8050381 4.8809555,5 8,5 c 3.119045,0 5.284355,1.8050381 6.105469,3.4472656 a 1,1 0 0 0 1.341797,0.4472657 1,1 0 0 0 0.447265,-1.3417969 C 14.715647,5.1949659 11.880949,3 8,3 Z"
         id="path12430-2-9-2-7-2-9-4" /><path
         style="color:#000000;fill:#000000;fill-opacity:0.35;fill-rule:evenodd;stroke:none;stroke-linecap:round;stroke-linejoin:round;-inkscape-stroke:none;paint-order:markers fill stroke"
         d="m 8,7.5 c -2.333331,0 -4.3016464,1.2408768 -4.9492187,3.183594 a 1,1 0 0 0 0.6328125,1.265625 1,1 0 0 0 1.2656249,-0.632813 C 5.3016454,10.259126 6.333335,9.5 8,9.5 c 1.666665,0 2.698355,0.759126 3.050781,1.816406 a 1,1 0 0 0 1.265625,0.632813 1,1 0 0 0 0.632813,-1.265625 C 12.301646,8.7408768 10.333331,7.5 8,7.5 Z"
         id="path14044-7-2-2-3-9-4-7" /></g></g></svg>
