<?xml version="1.0" encoding="UTF-8" standalone="no"?>
<!-- Created with Inkscape (http://www.inkscape.org/) -->

<svg
   width="16.000313"
   height="13"
   viewBox="0 0 16.000313 13.000001"
   version="1.1"
   id="svg5"
   xml:space="preserve"
   xmlns="http://www.w3.org/2000/svg"
   xmlns:svg="http://www.w3.org/2000/svg"><defs
     id="defs2" /><g
     id="layer1"
     transform="translate(-311.99984,-313)"><g
       id="g19194-9-8-5-8-7"
       style="fill:#000000;fill-opacity:1;stroke:#333333"
       transform="translate(312.00001,310.00001)"><path
         id="path12419-1-7-9-9-6"
         style="color:#000000;fill:#000000;fill-opacity:1;fill-rule:evenodd;stroke:none;stroke-linejoin:round;-inkscape-stroke:none;paint-order:markers fill stroke"
         d="m 7.99999,2.99999 c -3.8809446,0 -6.7156482,2.1949682 -7.89453125,4.5527344 A 1,1 0 0 0 0.55272438,8.8945213 1,1 0 0 0 1.8945213,8.4472556 C 2.7156342,6.8050298 4.8809486,4.99999 7.99999,4.99999 c 3.119042,0 5.284356,1.8050398 6.105469,3.4472656 a 1,1 0 0 0 1.341797,0.4472657 1,1 0 0 0 0.447265,-1.3417969 C 14.715638,5.1949582 11.880935,2.99999 7.99999,2.99999 Z m 0,4.5 c -2.3333287,0 -4.3016471,1.2408785 -4.9492187,3.183594 a 1,1 0 0 0 0.6328125,1.265625 1,1 0 0 0 1.265625,-0.632813 C 5.3016351,10.259117 6.3333267,9.49999 7.99999,9.49999 c 1.6666633,0 2.698356,0.759127 3.050781,1.816406 a 1,1 0 0 0 1.265625,0.632813 1,1 0 0 0 0.632813,-1.265625 C 12.301636,8.7408685 10.333319,7.49999 7.99999,7.49999 Z m 0,4.5 c -1.0927227,0 -2,0.907277 -2,2 0,1.092723 0.9072773,2 2,2 1.0927227,0 2,-0.907277 2,-2 0,-1.092723 -0.9072773,-2 -2,-2 z" /></g></g></svg>
